{
    "accessors" : [
        {
            "bufferView" : 0, 
            "componentType" : 5123, 
            "count" : 2322, 
            "max" : [
                1547
            ], 
            "min" : [
                0
            ], 
            "type" : "SCALAR"
        }, 
        {
            "bufferView" : 1, 
            "componentType" : 5126, 
            "count" : 1548, 
            "max" : [
                1.0000004768371582, 
                1.0, 
                1.0000005960464478
            ], 
            "min" : [
                -1.0000003576278687, 
                -1.0, 
                -1.0000003576278687
            ], 
            "type" : "VEC3"
        }, 
        {
            "bufferView" : 2, 
            "componentType" : 5126, 
            "count" : 1548, 
            "max" : [
                1.0, 
                1.0, 
                1.0
            ], 
            "min" : [
                -1.0, 
                -1.0, 
                -1.0
            ], 
            "type" : "VEC3"
        }, 
        {
            "bufferView" : 3, 
            "componentType" : 5121, 
            "count" : 66, 
            "max" : [
                39
            ], 
            "min" : [
                0
            ], 
            "type" : "SCALAR"
        }, 
        {
            "bufferView" : 4, 
            "componentType" : 5126, 
            "count" : 40, 
            "max" : [
                1.000000238418579, 
                0.7263438105583191, 
                0.45638999342918396
            ], 
            "min" : [
                0.7839701771736145, 
                -0.5027730464935303, 
                -0.45638999342918396
            ], 
            "type" : "VEC3"
        }, 
        {
            "bufferView" : 5, 
            "componentType" : 5126, 
            "count" : 40, 
            "max" : [
                0.9992473721504211, 
                1.0, 
                0.9975093603134155
            ], 
            "min" : [
                -3.920744617857963e-08, 
                -0.704572319984436, 
                -0.997509241104126
            ], 
            "type" : "VEC3"
        }
    ], 
    "asset" : {
        "generator" : "Khronos Blender glTF 2.0 exporter", 
        "version" : "2.0"
    }, 
    "bufferViews" : [
        {
            "buffer" : 0, 
            "byteLength" : 4644, 
            "byteOffset" : 0, 
            "target" : 34963
        }, 
        {
            "buffer" : 0, 
            "byteLength" : 18576, 
            "byteOffset" : 4644, 
            "target" : 34962
        }, 
        {
            "buffer" : 0, 
            "byteLength" : 18576, 
            "byteOffset" : 23220, 
            "target" : 34962
        }, 
        {
            "buffer" : 0, 
            "byteLength" : 66, 
            "byteOffset" : 41796, 
            "target" : 34963
        }, 
        {
            "buffer" : 0, 
            "byteLength" : 480, 
            "byteOffset" : 41864, 
            "target" : 34962
        }, 
        {
            "buffer" : 0, 
            "byteLength" : 480, 
            "byteOffset" : 42344, 
            "target" : 34962
        }
    ], 
    "buffers" : [
        {
            "byteLength" : 42824, 
            "uri" : "ArrowCube.bin"
        }
    ], 
    "materials" : [
        {
            "name" : "Material", 
            "pbrMetallicRoughness" : {
                "baseColorFactor" : [
                    0.042027298361063004, 
                    0.042027298361063004, 
                    0.042027298361063004, 
                    1.0
                ], 
                "metallicFactor" : 0.0
            }
        }, 
        {
            "name" : "Material.001", 
            "pbrMetallicRoughness" : {
                "baseColorFactor" : [
                    0.03466027132660554, 
                    0.23762188311847865, 
                    0.640000066757203, 
                    1.0
                ], 
                "metallicFactor" : 0.0
            }
        }
    ], 
    "meshes" : [
        {
            "name" : "Cube.002", 
            "primitives" : [
                {
                    "attributes" : {
                        "NORMAL" : 2, 
                        "POSITION" : 1
                    }, 
                    "indices" : 0, 
                    "material" : 0
                }, 
                {
                    "attributes" : {
                        "NORMAL" : 5, 
                        "POSITION" : 4
                    }, 
                    "indices" : 3, 
                    "material" : 1
                }
            ]
        }
    ], 
    "nodes" : [
        {
            "mesh" : 0, 
            "name" : "ArrowCube"
        }
    ], 
    "scene" : 0, 
    "scenes" : [
        {
            "name" : "Scene", 
            "nodes" : [
                0
            ]
        }
    ]
}
